<svg width="1307" height="791" viewBox="0 0 1307 791" fill="none" xmlns="http://www.w3.org/2000/svg">
<g opacity="0.12" clip-path="url(#clip0_31154_5277)">
<path d="M369.058 666.176C356.508 662.388 343.068 665.212 333.107 673.733C323.146 682.254 318.274 695.094 320.073 708.079L324.406 739.369C325.125 744.56 327.447 749.283 331.118 753.023C334.79 756.764 339.468 759.171 344.648 759.987C349.827 760.799 355.019 759.941 359.662 757.506C364.305 755.072 367.962 751.287 370.239 746.563L370.39 746.246C376.187 734.44 386.706 725.504 399.306 721.698C402.555 720.716 405.507 719.101 408.032 716.941C409.404 715.767 410.652 714.43 411.753 712.947C414.879 708.738 416.53 703.742 416.531 698.498C416.53 693.256 414.877 688.26 411.75 684.051C408.623 679.842 404.318 676.818 399.299 675.302L369.058 666.176Z" fill="#54ADFF"/>
<path d="M310.584 716.149C313.172 711.372 313.443 705.762 311.347 700.352C309.353 695.204 305.417 690.833 300.262 688.045C295.108 685.26 289.296 684.36 283.896 685.509C278.223 686.717 273.676 690.013 271.097 694.787C265.902 704.385 270.533 716.988 281.424 722.887C290.102 727.574 300.167 726.609 306.524 721.17C308.148 719.782 309.529 718.101 310.584 716.149Z" fill="#54ADFF"/>
<path d="M322.178 678.814C331.854 670.536 332.054 654.832 322.624 643.808C313.191 632.78 297.644 630.544 287.967 638.822C278.292 647.098 278.094 662.803 287.527 673.83C296.958 684.855 312.502 687.091 322.178 678.814Z" fill="#54ADFF"/>
<path d="M356.685 657.802L356.686 657.801C358.597 657.022 360.317 655.959 361.83 654.665C368.887 648.628 371.37 637.609 367.242 627.471C364.866 621.634 360.657 616.914 355.39 614.182C349.877 611.321 343.88 610.952 338.502 613.142C333.123 615.333 329.091 619.788 327.145 625.686C325.286 631.32 325.572 637.637 327.949 643.473C332.963 655.783 345.854 662.211 356.685 657.802Z" fill="#54ADFF"/>
<path d="M391.646 623.854L391.641 623.854C380.751 624.633 372.598 635.306 373.468 647.651C374.346 659.995 383.917 669.413 394.8 668.647C398.77 668.368 402.377 666.773 405.316 664.259C410.438 659.877 413.53 652.705 412.98 644.85C412.101 632.507 402.531 623.088 391.646 623.854Z" fill="#54ADFF"/>
</g>
<g opacity="0.12" clip-path="url(#clip1_31154_5277)">
<path d="M1138.75 547.807C1151.81 548.957 1164.39 543.452 1172.41 533.079C1180.42 522.706 1182.57 509.143 1178.16 496.797L1167.54 467.047C1165.78 462.112 1162.55 457.962 1158.19 455.049C1153.83 452.135 1148.76 450.732 1143.52 450.989C1138.29 451.25 1133.38 453.148 1129.33 456.479C1125.28 459.809 1122.47 464.26 1121.21 469.348L1121.12 469.69C1117.85 482.43 1109.38 493.323 1097.82 499.617C1094.84 501.241 1092.28 503.424 1090.25 506.053C1089.14 507.482 1088.19 509.046 1087.42 510.721C1085.22 515.479 1084.62 520.707 1085.69 525.841C1086.75 530.973 1089.39 535.527 1093.31 539.01C1097.23 542.493 1102.06 544.576 1107.28 545.037L1138.75 547.807Z" fill="#FFC107"/>
<path d="M1185.81 486.962C1184.25 492.166 1185.13 497.714 1188.28 502.583C1191.28 507.217 1196.03 510.693 1201.64 512.372C1207.25 514.047 1213.13 513.744 1218.18 511.518C1223.49 509.179 1227.27 505.025 1228.82 499.826C1231.95 489.371 1224.85 477.975 1212.98 474.421C1203.53 471.602 1193.87 474.598 1188.76 481.219C1187.45 482.909 1186.44 484.836 1185.81 486.962Z" fill="#FFC107"/>
<path d="M1182.07 525.876C1174.28 535.953 1177.29 551.368 1188.77 560.238C1200.25 569.111 1215.93 568.131 1223.72 558.054C1231.5 547.979 1228.49 532.564 1217.01 523.691C1205.53 514.82 1189.86 515.801 1182.07 525.876Z" fill="#FFC107"/>
<path d="M1152.57 553.482L1152.57 553.483C1150.86 554.636 1149.39 556.027 1148.17 557.602C1142.49 564.95 1142.31 576.245 1148.42 585.329C1151.93 590.558 1157.02 594.321 1162.73 595.922C1168.71 597.599 1174.66 596.738 1179.48 593.497C1184.29 590.255 1187.33 585.072 1188.04 578.901C1188.71 573.006 1187.14 566.88 1183.62 561.652C1176.2 550.622 1162.27 546.957 1152.57 553.482Z" fill="#FFC107"/>
<path d="M1125.26 593.845L1125.27 593.844C1135.77 590.861 1141.58 578.75 1138.21 566.841C1134.83 554.936 1123.54 547.666 1113.04 550.636C1109.21 551.718 1106.01 554.015 1103.64 557.075C1099.52 562.409 1097.96 570.061 1100.1 577.638C1103.47 589.543 1114.76 596.813 1125.26 593.845Z" fill="#FFC107"/>
</g>
<g opacity="0.12" clip-path="url(#clip2_31154_5277)">
<path d="M734.447 213.787C732.329 209.363 728.158 206.361 723.291 205.756C718.424 205.152 713.646 207.043 710.511 210.815L702.955 219.904C701.701 221.412 700.981 223.244 700.873 225.202C700.765 227.161 701.28 229.061 702.36 230.699C703.442 232.335 704.989 233.553 706.832 234.223C708.676 234.892 710.645 234.949 712.525 234.387L712.651 234.348C717.376 232.973 722.499 233.628 726.728 236.15C727.819 236.801 729.01 237.209 730.243 237.362C730.914 237.446 731.598 237.453 732.286 237.384C734.237 237.186 736.035 236.383 737.485 235.061C738.933 233.738 739.897 232.022 740.272 230.096C740.647 228.17 740.397 226.217 739.55 224.448L734.447 213.787Z" fill="#FFC107"/>
<path d="M705.887 210.228C707.86 209.738 709.479 208.398 710.446 206.455C711.366 204.605 711.582 202.415 711.052 200.287C710.522 198.16 709.305 196.327 707.626 195.124C705.862 193.86 703.804 193.435 701.834 193.926C697.871 194.911 695.555 199.369 696.671 203.867C697.564 207.448 700.369 209.986 703.476 210.372C704.269 210.47 705.082 210.428 705.887 210.228Z" fill="#FFC107"/>
<path d="M719.13 204.016C723.858 204.603 728.249 200.698 728.918 195.311C729.588 189.923 726.285 185.062 721.557 184.475C716.829 183.888 712.438 187.793 711.769 193.182C711.1 198.569 714.402 203.429 719.13 204.016Z" fill="#FFC107"/>
<path d="M733.641 208.256L733.642 208.256C734.339 208.588 735.067 208.795 735.806 208.887C739.254 209.315 742.926 207.223 744.687 203.525C745.702 201.396 745.945 199.042 745.372 196.898C744.772 194.652 743.362 192.902 741.4 191.967C739.438 191.033 737.19 191.042 735.069 191.992C733.042 192.899 731.369 194.571 730.355 196.7C728.217 201.19 729.691 206.374 733.641 208.256Z" fill="#FFC107"/>
<path d="M751.841 209.358L751.84 209.356C748.878 206.543 743.872 206.981 740.679 210.335C737.489 213.691 737.299 218.711 740.256 221.526C741.334 222.553 742.685 223.148 744.12 223.326C746.623 223.637 749.386 222.683 751.418 220.55C754.608 217.194 754.798 212.174 751.841 209.358Z" fill="#FFC107"/>
</g>
<g opacity="0.12" clip-path="url(#clip3_31154_5277)">
<path d="M66.6813 235.004C64.8904 239.571 65.5388 244.668 68.4165 248.64C71.2942 252.612 75.9361 254.816 80.833 254.536L92.6334 253.863C94.5911 253.751 96.4222 253.028 97.9277 251.771C99.4336 250.514 100.472 248.842 100.933 246.935C101.392 245.028 101.228 243.066 100.46 241.261C99.692 239.456 98.3905 237.978 96.6974 236.987L96.5836 236.92C92.3552 234.403 89.3396 230.21 88.3 225.397C88.0316 224.155 87.5181 223.006 86.7887 221.999C86.3921 221.452 85.931 220.946 85.4115 220.491C83.9358 219.198 82.1222 218.432 80.1665 218.273C78.2116 218.116 76.2985 218.582 74.6346 219.621C72.9706 220.661 71.7128 222.175 70.9963 224.001L66.6813 235.004Z" fill="#FFC107"/>
<path d="M83.5562 258.318C81.8526 257.209 79.7685 256.939 77.6877 257.557C75.7076 258.146 73.9589 259.482 72.7637 261.321C71.5699 263.159 71.059 265.299 71.3247 267.348C71.6042 269.5 72.6965 271.295 74.3993 272.401C77.8222 274.627 82.6624 273.28 85.1905 269.396C87.1999 266.301 87.1433 262.518 85.3065 259.983C84.8375 259.336 84.2524 258.77 83.5562 258.318Z" fill="#FFC107"/>
<path d="M69.9821 252.869C67.1866 249.011 61.3359 248.463 56.94 251.648C52.5431 254.834 51.2405 260.565 54.0361 264.423C56.8313 268.281 62.6825 268.828 67.0794 265.642C71.4752 262.457 72.7774 256.727 69.9821 252.869Z" fill="#FFC107"/>
<path d="M63.1857 239.366L63.1854 239.366C62.9524 238.63 62.6078 237.956 62.1709 237.353C60.1322 234.539 56.0974 233.281 52.1918 234.515C49.9435 235.225 48.0565 236.653 46.8788 238.535C45.6457 240.504 45.3272 242.73 45.9819 244.802C46.637 246.874 48.177 248.512 50.318 249.415C52.3633 250.278 54.7279 250.362 56.9757 249.651C61.7181 248.152 64.5038 243.538 63.1857 239.366Z" fill="#FFC107"/>
<path d="M51.5786 225.305L51.5783 225.306C51.5406 229.391 55.2758 232.753 59.906 232.801C64.5362 232.845 68.3371 229.56 68.3791 225.478C68.3949 223.989 67.9085 222.596 67.0595 221.424C65.5798 219.382 62.998 218.012 60.0521 217.981C55.4222 217.937 51.621 221.222 51.5786 225.305Z" fill="#FFC107"/>
</g>
<g opacity="0.12" clip-path="url(#clip4_31154_5277)">
<path d="M66.9785 702.519C65.2707 706.874 65.8891 711.735 68.6332 715.522C71.3774 719.31 75.804 721.412 80.4737 721.145L91.7265 720.503C93.5934 720.397 95.3396 719.707 96.7752 718.508C98.2112 717.31 99.2017 715.715 99.6409 713.897C100.078 712.078 99.9225 710.207 99.1901 708.486C98.4576 706.764 97.2166 705.355 95.602 704.41L95.4934 704.347C91.4613 701.946 88.5855 697.948 87.5942 693.357C87.3383 692.173 86.8486 691.077 86.153 690.117C85.7749 689.596 85.3352 689.113 84.8397 688.679C83.4325 687.447 81.7031 686.716 79.8381 686.565C77.9739 686.414 76.1496 686.859 74.5628 687.85C72.9761 688.841 71.7766 690.285 71.0934 692.027L66.9785 702.519Z" fill="#FFC107"/>
<path d="M83.0717 724.751C81.4472 723.693 79.4598 723.436 77.4756 724.026C75.5873 724.587 73.9197 725.861 72.78 727.614C71.6416 729.367 71.1544 731.408 71.4078 733.362C71.6743 735.414 72.7159 737.126 74.3397 738.181C77.6038 740.304 82.2194 739.019 84.6302 735.315C86.5464 732.364 86.4924 728.756 84.7409 726.339C84.2937 725.722 83.7356 725.182 83.0717 724.751Z" fill="#FFC107"/>
<path d="M70.1278 719.555C67.462 715.876 61.8828 715.354 57.6909 718.391C53.498 721.429 52.2558 726.894 54.9217 730.573C57.5872 734.252 63.1669 734.774 67.3598 731.736C71.5517 728.698 72.7934 723.234 70.1278 719.555Z" fill="#FFC107"/>
<path d="M63.645 706.679L63.6448 706.678C63.4225 705.976 63.094 705.334 62.6774 704.759C60.7332 702.076 56.8856 700.876 53.1612 702.053C51.0172 702.73 49.2177 704.091 48.0947 705.886C46.9188 707.764 46.6151 709.887 47.2395 711.862C47.8641 713.838 49.3327 715.4 51.3744 716.262C53.3248 717.085 55.5797 717.165 57.7232 716.487C62.2455 715.057 64.902 710.657 63.645 706.679Z" fill="#FFC107"/>
<path d="M52.5782 693.27L52.578 693.271C52.5421 697.167 56.1039 700.373 60.5193 700.418C64.9346 700.461 68.5592 697.328 68.5993 693.435C68.6143 692.015 68.1505 690.686 67.3409 689.569C65.9299 687.622 63.4678 686.316 60.6586 686.286C56.2436 686.244 52.6187 689.376 52.5782 693.27Z" fill="#FFC107"/>
</g>
<g opacity="0.12" clip-path="url(#clip5_31154_5277)">
<path d="M506.763 392.376C502.128 393.007 498.185 395.917 496.216 400.159C494.247 404.401 494.569 409.291 497.078 413.238L503.124 422.751C504.126 424.329 505.58 425.517 507.326 426.187C509.073 426.856 510.948 426.944 512.75 426.441C514.551 425.937 516.109 424.888 517.255 423.41C518.401 421.931 519.026 420.161 519.065 418.29L519.067 418.165C519.198 413.474 521.287 409.014 524.812 405.911C525.721 405.11 526.439 404.148 526.938 403.073C527.21 402.489 527.416 401.87 527.554 401.225C527.944 399.396 527.74 397.529 526.962 395.828C526.185 394.127 524.908 392.75 523.269 391.848C521.63 390.945 519.784 390.602 517.931 390.854L506.763 392.376Z" fill="#54ADFF"/>
<path d="M495.195 417.263C495.326 415.329 494.582 413.469 493.1 412.024C491.69 410.648 489.764 409.813 487.678 409.673C485.592 409.533 483.573 410.103 481.99 411.276C480.328 412.509 479.341 414.253 479.212 416.185C478.949 420.07 482.321 423.474 486.73 423.774C490.241 424.008 493.365 422.203 494.622 419.495C494.943 418.804 495.142 418.053 495.195 417.263Z" fill="#54ADFF"/>
<path d="M493.421 403.428C495.335 399.307 493.071 394.181 488.376 392.001C483.68 389.821 478.303 391.4 476.389 395.521C474.476 399.642 476.741 404.768 481.437 406.948C486.132 409.128 491.508 407.549 493.421 403.428Z" fill="#54ADFF"/>
<path d="M501.505 391.492L501.505 391.492C502.01 390.956 502.411 390.356 502.71 389.712C504.105 386.706 503.277 382.762 500.434 380.083C498.798 378.541 496.732 377.634 494.618 377.528C492.404 377.417 490.403 378.186 488.983 379.694C487.562 381.203 486.913 383.247 487.156 385.449C487.388 387.553 488.418 389.561 490.055 391.102C493.507 394.354 498.644 394.529 501.505 391.492Z" fill="#54ADFF"/>
<path d="M507.819 375.292L507.818 375.292C504.399 377.16 503.336 381.833 505.448 385.71C507.563 389.586 512.066 391.224 515.484 389.361C516.731 388.682 517.665 387.63 518.246 386.378C519.259 384.197 519.199 381.411 517.856 378.943C515.741 375.067 511.239 373.429 507.819 375.292Z" fill="#54ADFF"/>
</g>
<g opacity="0.12" clip-path="url(#clip6_31154_5277)">
<path d="M1208.79 248.062C1213.5 235.827 1211.68 222.214 1203.92 211.649C1196.16 201.083 1183.72 195.272 1170.64 196.102L1139.11 198.102C1133.88 198.433 1129 200.399 1125 203.782C1120.99 207.167 1118.25 211.653 1117.05 216.758C1115.85 221.862 1116.32 227.103 1118.41 231.915C1120.49 236.726 1123.99 240.654 1128.54 243.274L1128.84 243.449C1140.19 250.105 1148.32 261.259 1151.18 274.106C1151.91 277.42 1153.31 280.483 1155.27 283.161C1156.34 284.617 1157.58 285.96 1158.98 287.169C1162.95 290.598 1167.81 292.616 1173.03 293.005C1178.26 293.393 1183.37 292.115 1187.8 289.309C1192.23 286.503 1195.56 282.434 1197.45 277.542L1208.79 248.062Z" fill="#54ADFF"/>
<path d="M1163.29 186.042C1167.86 188.976 1173.44 189.663 1178.99 187.975C1184.27 186.368 1188.92 182.767 1192.09 177.833C1195.24 172.9 1196.57 167.171 1195.83 161.7C1195.05 155.953 1192.1 151.174 1187.53 148.248C1178.34 142.356 1165.43 146.038 1158.74 156.462C1153.42 164.768 1153.63 174.877 1158.59 181.621C1159.85 183.343 1161.42 184.845 1163.29 186.042Z" fill="#54ADFF"/>
<path d="M1199.66 200.372C1207.2 210.636 1222.85 212.001 1234.54 203.414C1246.24 194.825 1249.62 179.487 1242.09 169.223C1234.55 158.96 1218.9 157.597 1207.21 166.186C1195.51 174.773 1192.13 190.109 1199.66 200.372Z" fill="#54ADFF"/>
<path d="M1218.06 236.344L1218.06 236.345C1218.7 238.309 1219.63 240.104 1220.81 241.708C1226.3 249.193 1237.11 252.487 1247.52 249.123C1253.52 247.187 1258.54 243.339 1261.65 238.29C1264.92 233.004 1265.73 227.051 1263.95 221.525C1262.16 215.999 1258.02 211.647 1252.28 209.269C1246.8 206.997 1240.48 206.813 1234.48 208.751C1221.83 212.838 1214.47 225.216 1218.06 236.344Z" fill="#54ADFF"/>
<path d="M1249.32 273.727L1249.32 273.722C1249.35 262.805 1239.31 253.883 1226.94 253.834C1214.56 253.794 1204.46 262.639 1204.42 273.549C1204.4 277.529 1205.72 281.245 1208.01 284.362C1212 289.795 1218.92 293.411 1226.8 293.445C1239.17 293.484 1249.28 284.64 1249.32 273.727Z" fill="#54ADFF"/>
</g>
<defs>
<clipPath id="clip0_31154_5277">
<rect width="157.222" height="157.222" fill="white" transform="translate(235 671.2) rotate(-40.5446)"/>
</clipPath>
<clipPath id="clip1_31154_5277">
<rect width="157.222" height="157.222" fill="white" transform="translate(1268.97 515.558) rotate(127.692)"/>
</clipPath>
<clipPath id="clip2_31154_5277">
<rect width="58.827" height="58.827" fill="white" transform="translate(699.25 178) rotate(7.07858)"/>
</clipPath>
<clipPath id="clip3_31154_5277">
<rect width="58.827" height="58.827" fill="white" transform="translate(64.5156 285.153) rotate(-125.925)"/>
</clipPath>
<clipPath id="clip4_31154_5277">
<rect width="56.0976" height="56.0976" fill="white" transform="translate(64.9141 750.341) rotate(-125.925)"/>
</clipPath>
<clipPath id="clip5_31154_5277">
<rect width="56.0976" height="56.0976" fill="white" transform="translate(464 413.882) rotate(-65.0971)"/>
</clipPath>
<clipPath id="clip6_31154_5277">
<rect width="157.222" height="157.222" fill="white" transform="translate(1213.73 114) rotate(53.7104)"/>
</clipPath>
</defs>
</svg>
