<svg width="379" height="601" viewBox="0 0 379 601" fill="none" xmlns="http://www.w3.org/2000/svg">
<g opacity="0.12" clip-path="url(#clip0_31154_5369)">
<path d="M170.921 335.6C164.599 333.692 157.828 335.115 152.81 339.407C147.792 343.7 145.338 350.168 146.244 356.71L148.427 372.473C148.789 375.088 149.959 377.467 151.808 379.351C153.658 381.236 156.015 382.449 158.624 382.86C161.233 383.269 163.849 382.837 166.188 381.61C168.527 380.384 170.369 378.477 171.516 376.097L171.592 375.937C174.513 369.99 179.812 365.488 186.159 363.571C187.796 363.076 189.283 362.262 190.555 361.174C191.247 360.583 191.875 359.909 192.43 359.163C194.004 357.042 194.837 354.525 194.837 351.883C194.836 349.243 194.003 346.726 192.428 344.606C190.853 342.485 188.684 340.961 186.156 340.198L170.921 335.6Z" fill="#54ADFF"/>
<path d="M141.464 360.776C142.768 358.369 142.904 355.543 141.848 352.818C140.844 350.224 138.861 348.022 136.264 346.618C133.668 345.215 130.74 344.761 128.019 345.34C125.161 345.948 122.871 347.609 121.571 350.014C118.955 354.849 121.287 361.198 126.774 364.17C131.146 366.531 136.216 366.045 139.419 363.305C140.237 362.606 140.933 361.759 141.464 360.776Z" fill="#54ADFF"/>
<path d="M147.303 341.967C152.177 337.797 152.278 329.886 147.527 324.332C142.775 318.777 134.943 317.65 130.068 321.82C125.194 325.99 125.094 333.901 129.847 339.456C134.598 345.01 142.428 346.137 147.303 341.967Z" fill="#54ADFF"/>
<path d="M164.689 331.382L164.69 331.382C165.653 330.989 166.519 330.454 167.281 329.802C170.836 326.761 172.087 321.21 170.008 316.102C168.811 313.162 166.69 310.784 164.037 309.408C161.26 307.967 158.239 307.781 155.529 308.884C152.82 309.988 150.788 312.232 149.808 315.203C148.871 318.042 149.015 321.224 150.213 324.164C152.739 330.365 159.233 333.604 164.689 331.382Z" fill="#54ADFF"/>
<path d="M182.301 314.28L182.299 314.28C176.813 314.673 172.706 320.05 173.144 326.269C173.586 332.487 178.408 337.232 183.89 336.846C185.89 336.705 187.708 335.901 189.188 334.635C191.768 332.428 193.326 328.815 193.049 324.858C192.606 318.64 187.785 313.895 182.301 314.28Z" fill="#54ADFF"/>
</g>
<g opacity="0.12" clip-path="url(#clip1_31154_5369)">
<path d="M354.994 107.7C353.927 105.472 351.826 103.959 349.374 103.655C346.922 103.35 344.515 104.303 342.936 106.203L339.129 110.782C338.498 111.541 338.135 112.465 338.081 113.451C338.026 114.438 338.286 115.395 338.83 116.22C339.375 117.044 340.154 117.658 341.083 117.995C342.012 118.333 343.003 118.361 343.95 118.078L344.014 118.059C346.394 117.366 348.975 117.695 351.106 118.966C351.655 119.294 352.255 119.5 352.877 119.577C353.214 119.619 353.559 119.623 353.906 119.588C354.889 119.488 355.794 119.083 356.524 118.417C357.254 117.751 357.74 116.886 357.929 115.916C358.118 114.946 357.992 113.962 357.565 113.071L354.994 107.7Z" fill="#FFC107"/>
<path d="M340.606 105.907C341.599 105.661 342.415 104.986 342.902 104.007C343.366 103.075 343.474 101.972 343.208 100.899C342.941 99.8281 342.328 98.9044 341.481 98.2983C340.593 97.6619 339.556 97.4475 338.563 97.6949C336.567 98.1909 335.4 100.437 335.963 102.703C336.413 104.507 337.826 105.786 339.391 105.98C339.79 106.03 340.2 106.008 340.606 105.907Z" fill="#FFC107"/>
<path d="M347.277 102.777C349.659 103.073 351.871 101.106 352.208 98.3921C352.545 95.6776 350.881 93.2287 348.499 92.9329C346.117 92.6371 343.905 94.6048 343.568 97.3193C343.231 100.033 344.895 102.482 347.277 102.777Z" fill="#FFC107"/>
<path d="M354.587 104.913L354.587 104.913C354.938 105.08 355.305 105.185 355.677 105.231C357.414 105.447 359.264 104.393 360.152 102.53C360.663 101.458 360.785 100.272 360.496 99.1914C360.194 98.0603 359.484 97.1783 358.496 96.7077C357.507 96.237 356.374 96.2415 355.306 96.7199C354.285 97.1768 353.442 98.0192 352.931 99.0916C351.854 101.354 352.597 103.965 354.587 104.913Z" fill="#FFC107"/>
<path d="M363.756 105.469L363.755 105.468C362.263 104.051 359.741 104.272 358.133 105.961C356.526 107.652 356.43 110.181 357.919 111.599C358.463 112.116 359.143 112.416 359.866 112.506C361.127 112.662 362.519 112.182 363.543 111.107C365.15 109.417 365.245 106.888 363.756 105.469Z" fill="#FFC107"/>
</g>
<g opacity="0.12" clip-path="url(#clip2_31154_5369)">
<path d="M18.5899 118.389C17.6877 120.69 18.0144 123.258 19.4641 125.258C20.9138 127.259 23.2522 128.37 25.7192 128.229L31.6639 127.89C32.6501 127.833 33.5726 127.469 34.331 126.836C35.0896 126.203 35.6129 125.36 35.8449 124.399C36.076 123.439 35.9936 122.45 35.6067 121.541C35.2198 120.632 34.5642 119.887 33.7112 119.388L33.6539 119.354C31.5237 118.086 30.0045 115.974 29.4808 113.549C29.3456 112.924 29.0869 112.345 28.7195 111.837C28.5197 111.562 28.2874 111.307 28.0257 111.077C27.2823 110.426 26.3686 110.04 25.3834 109.961C24.3986 109.881 23.4348 110.116 22.5966 110.64C21.7583 111.163 21.1247 111.926 20.7637 112.846L18.5899 118.389Z" fill="#FFC107"/>
<path d="M27.0921 130.133C26.2338 129.574 25.1839 129.438 24.1357 129.749C23.1381 130.046 22.2572 130.719 21.6551 131.645C21.0537 132.571 20.7963 133.65 20.9302 134.682C21.071 135.766 21.6212 136.67 22.4791 137.227C24.2034 138.349 26.6418 137.67 27.9154 135.714C28.9276 134.154 28.8991 132.249 27.9738 130.972C27.7376 130.645 27.4428 130.36 27.0921 130.133Z" fill="#FFC107"/>
<path d="M20.2547 127.388C18.8464 125.445 15.899 125.169 13.6845 126.773C11.4695 128.378 10.8132 131.265 12.2216 133.209C13.6297 135.152 16.5774 135.428 18.7924 133.823C21.0069 132.218 21.6629 129.332 20.2547 127.388Z" fill="#FFC107"/>
<path d="M16.8291 120.585L16.8289 120.585C16.7115 120.214 16.5379 119.875 16.3179 119.571C15.2908 118.154 13.2582 117.52 11.2907 118.141C10.158 118.499 9.20738 119.218 8.61412 120.166C7.9929 121.159 7.83245 122.28 8.16231 123.324C8.4923 124.367 9.26811 125.193 10.3467 125.648C11.3771 126.083 12.5683 126.125 13.7007 125.767C16.0897 125.011 17.4931 122.687 16.8291 120.585Z" fill="#FFC107"/>
<path d="M10.9838 113.502L10.9836 113.503C10.9647 115.561 12.8463 117.254 15.1789 117.278C17.5115 117.301 19.4263 115.645 19.4474 113.589C19.4554 112.839 19.2103 112.137 18.7826 111.547C18.0372 110.518 16.7366 109.828 15.2525 109.812C12.9201 109.79 11.0052 111.445 10.9838 113.502Z" fill="#FFC107"/>
</g>
<g opacity="0.12" clip-path="url(#clip3_31154_5369)">
<path d="M18.7428 353.91C17.8825 356.104 18.194 358.553 19.5764 360.461C20.9589 362.369 23.1888 363.427 25.5413 363.293L31.2102 362.97C32.1507 362.916 33.0303 362.569 33.7536 361.965C34.477 361.361 34.976 360.558 35.1972 359.642C35.4176 358.725 35.3391 357.783 34.9701 356.916C34.6011 356.049 33.9759 355.339 33.1625 354.862L33.1079 354.831C31.0766 353.621 29.6279 351.607 29.1284 349.295C28.9995 348.698 28.7528 348.146 28.4024 347.662C28.2119 347.399 27.9904 347.157 27.7408 346.938C27.0319 346.317 26.1607 345.949 25.2211 345.873C24.282 345.797 23.363 346.021 22.5636 346.52C21.7642 347.019 21.16 347.747 20.8158 348.624L18.7428 353.91Z" fill="#FFC107"/>
<path d="M26.8516 365.109C26.0332 364.577 25.032 364.447 24.0324 364.744C23.0811 365.027 22.241 365.669 21.6669 366.552C21.0934 367.435 20.848 368.463 20.9756 369.447C21.1098 370.481 21.6346 371.344 22.4526 371.875C24.097 372.944 26.4222 372.297 27.6367 370.431C28.602 368.944 28.5748 367.127 27.6924 365.909C27.4671 365.598 27.186 365.326 26.8516 365.109Z" fill="#FFC107"/>
<path d="M20.3286 362.492C18.9857 360.638 16.175 360.375 14.0633 361.905C11.951 363.436 11.3252 366.189 12.6682 368.042C14.011 369.895 16.8219 370.158 18.9342 368.628C21.0459 367.098 21.6715 364.345 20.3286 362.492Z" fill="#FFC107"/>
<path d="M17.0636 356.005L17.0635 356.004C16.9516 355.651 16.786 355.327 16.5761 355.037C15.5967 353.686 13.6584 353.081 11.7822 353.674C10.7021 354.015 9.79557 354.701 9.22983 355.605C8.63744 356.551 8.48443 357.621 8.79898 358.616C9.11366 359.611 9.85348 360.398 10.882 360.832C11.8646 361.247 13.0005 361.287 14.0804 360.946C16.3586 360.225 17.6969 358.009 17.0636 356.005Z" fill="#FFC107"/>
<path d="M11.4877 349.25L11.4875 349.251C11.4694 351.213 13.2638 352.828 15.4882 352.851C17.7125 352.872 19.5384 351.294 19.5586 349.333C19.5662 348.618 19.3325 347.948 18.9247 347.385C18.2138 346.404 16.9735 345.746 15.5583 345.731C13.3341 345.71 11.5081 347.288 11.4877 349.25Z" fill="#FFC107"/>
</g>
<g opacity="0.12" clip-path="url(#clip4_31154_5369)">
<path d="M240.292 197.668C237.957 197.986 235.971 199.452 234.979 201.589C233.987 203.726 234.149 206.189 235.413 208.178L238.459 212.97C238.964 213.765 239.696 214.364 240.576 214.701C241.456 215.039 242.4 215.083 243.308 214.829C244.216 214.575 245 214.047 245.578 213.302C246.155 212.557 246.47 211.665 246.489 210.723L246.491 210.66C246.556 208.297 247.609 206.05 249.385 204.487C249.843 204.083 250.204 203.599 250.456 203.057C250.593 202.763 250.697 202.451 250.766 202.126C250.963 201.205 250.86 200.264 250.468 199.407C250.076 198.55 249.433 197.857 248.607 197.402C247.782 196.948 246.852 196.775 245.918 196.902L240.292 197.668Z" fill="#54ADFF"/>
<path d="M234.465 210.205C234.531 209.231 234.156 208.293 233.41 207.565C232.699 206.873 231.729 206.452 230.678 206.381C229.627 206.311 228.61 206.598 227.813 207.189C226.975 207.81 226.478 208.689 226.413 209.662C226.281 211.619 227.979 213.334 230.2 213.485C231.969 213.603 233.543 212.693 234.176 211.329C234.338 210.981 234.438 210.603 234.465 210.205Z" fill="#54ADFF"/>
<path d="M233.572 203.236C234.536 201.16 233.396 198.578 231.031 197.48C228.665 196.381 225.956 197.177 224.992 199.253C224.028 201.329 225.169 203.911 227.535 205.009C229.9 206.108 232.609 205.312 233.572 203.236Z" fill="#54ADFF"/>
<path d="M237.645 197.222L237.645 197.222C237.899 196.952 238.101 196.65 238.251 196.325C238.954 194.811 238.537 192.824 237.105 191.475C236.281 190.698 235.24 190.241 234.175 190.187C233.06 190.131 232.052 190.519 231.336 191.279C230.62 192.039 230.294 193.068 230.416 194.178C230.533 195.238 231.052 196.249 231.876 197.026C233.615 198.664 236.203 198.752 237.645 197.222Z" fill="#54ADFF"/>
<path d="M240.825 189.062L240.824 189.062C239.102 190.003 238.566 192.357 239.63 194.31C240.696 196.263 242.964 197.088 244.686 196.15C245.314 195.808 245.785 195.277 246.078 194.647C246.588 193.548 246.558 192.144 245.881 190.901C244.816 188.949 242.547 188.124 240.825 189.062Z" fill="#54ADFF"/>
</g>
<g opacity="0.12" clip-path="url(#clip5_31154_5369)">
<path d="M87.1458 497.916C84.811 498.234 82.8246 499.7 81.8324 501.837C80.8403 503.974 81.0027 506.437 82.2667 508.426L85.3122 513.218C85.8174 514.013 86.5498 514.612 87.4294 514.949C88.3092 515.287 89.2538 515.331 90.1616 515.077C91.069 514.823 91.8538 514.295 92.4311 513.55C93.0084 512.805 93.3236 511.913 93.343 510.971L93.344 510.908C93.4099 508.545 94.4625 506.298 96.2382 504.735C96.6962 504.331 97.058 503.847 97.3095 503.305C97.4462 503.011 97.5503 502.699 97.6197 502.374C97.8163 501.453 97.7132 500.512 97.3216 499.655C96.9299 498.798 96.2865 498.105 95.4608 497.65C94.6352 497.196 93.7055 497.023 92.7718 497.15L87.1458 497.916Z" fill="#54ADFF"/>
<path d="M81.3183 510.454C81.3845 509.48 81.0098 508.542 80.2631 507.814C79.5526 507.122 78.5826 506.701 77.5315 506.63C76.4809 506.56 75.4634 506.847 74.6662 507.438C73.829 508.059 73.3318 508.938 73.2667 509.911C73.1343 511.868 74.8327 513.583 77.0539 513.734C78.8228 513.852 80.3963 512.942 81.0296 511.578C81.1912 511.23 81.2916 510.852 81.3183 510.454Z" fill="#54ADFF"/>
<path d="M80.4258 503.484C81.3896 501.408 80.2494 498.826 77.8841 497.728C75.5181 496.629 72.8093 497.425 71.8454 499.501C70.8817 501.577 72.0224 504.159 74.3883 505.258C76.7536 506.356 79.462 505.56 80.4258 503.484Z" fill="#54ADFF"/>
<path d="M84.4981 497.47L84.4982 497.47C84.7524 497.2 84.9544 496.898 85.105 496.573C85.8079 495.059 85.3909 493.072 83.9587 491.723C83.1343 490.946 82.0936 490.489 81.0285 490.435C79.9134 490.379 78.9053 490.767 78.1896 491.527C77.4738 492.287 77.1473 493.316 77.2697 494.426C77.3866 495.486 77.9052 496.497 78.7297 497.274C80.469 498.912 83.0567 499 84.4981 497.47Z" fill="#54ADFF"/>
<path d="M87.6784 489.31L87.6776 489.31C85.9553 490.251 85.4196 492.605 86.4839 494.558C87.5495 496.511 89.8176 497.336 91.5397 496.398C92.168 496.056 92.6386 495.525 92.9313 494.895C93.4414 493.796 93.4113 492.392 92.7347 491.149C91.6691 489.197 89.401 488.372 87.6784 489.31Z" fill="#54ADFF"/>
</g>
<g opacity="0.12" clip-path="url(#clip6_31154_5369)">
<path d="M228.483 536.204C235.062 536.783 241.4 534.01 245.438 528.784C249.475 523.559 250.56 516.726 248.339 510.507L242.988 495.52C242.101 493.033 240.47 490.943 238.276 489.475C236.08 488.007 233.526 487.3 230.888 487.43C228.25 487.561 225.778 488.518 223.737 490.195C221.697 491.873 220.283 494.115 219.645 496.679L219.603 496.851C217.957 503.269 213.686 508.756 207.863 511.927C206.361 512.745 205.072 513.845 204.048 515.169C203.492 515.89 203.014 516.677 202.623 517.521C201.514 519.918 201.212 522.552 201.751 525.138C202.289 527.723 203.618 530.018 205.592 531.772C207.567 533.527 210 534.577 212.631 534.809L228.483 536.204Z" fill="#FFC107"/>
<path d="M252.189 505.552C251.404 508.174 251.846 510.968 253.435 513.421C254.947 515.756 257.337 517.507 260.166 518.352C262.994 519.196 265.953 519.044 268.499 517.922C271.172 516.744 273.076 514.652 273.858 512.032C275.434 506.765 271.856 501.025 265.879 499.234C261.117 497.814 256.253 499.323 253.676 502.659C253.018 503.51 252.509 504.481 252.189 505.552Z" fill="#FFC107"/>
<path d="M250.308 525.156C246.386 530.232 247.9 537.998 253.683 542.466C259.468 546.936 267.366 546.443 271.288 541.366C275.21 536.291 273.694 528.525 267.909 524.055C262.126 519.586 254.23 520.08 250.308 525.156Z" fill="#FFC107"/>
<path d="M235.445 539.063L235.445 539.064C234.583 539.644 233.843 540.345 233.23 541.139C230.37 544.841 230.277 550.53 233.354 555.107C235.125 557.741 237.686 559.636 240.564 560.443C243.577 561.288 246.572 560.854 249 559.222C251.428 557.589 252.959 554.977 253.313 551.869C253.651 548.899 252.861 545.813 251.089 543.179C247.352 537.623 240.334 535.776 235.445 539.063Z" fill="#FFC107"/>
<path d="M221.69 559.396L221.693 559.396C226.984 557.893 229.908 551.792 228.211 545.793C226.51 539.795 220.823 536.133 215.534 537.629C213.605 538.174 211.99 539.331 210.799 540.873C208.722 543.56 207.934 547.415 209.012 551.232C210.713 557.229 216.4 560.892 221.69 559.396Z" fill="#FFC107"/>
</g>
<g opacity="0.12" clip-path="url(#clip7_31154_5369)">
<path d="M329.26 381.89C331.632 375.727 330.715 368.869 326.807 363.547C322.898 358.224 316.63 355.296 310.039 355.715L294.157 356.722C291.522 356.889 289.063 357.879 287.047 359.584C285.03 361.289 283.646 363.549 283.043 366.12C282.441 368.692 282.678 371.332 283.728 373.756C284.777 376.18 286.542 378.159 288.83 379.479L288.984 379.567C294.698 382.92 298.794 388.539 300.235 395.011C300.607 396.68 301.308 398.223 302.299 399.572C302.838 400.306 303.463 400.983 304.166 401.591C306.164 403.319 308.612 404.335 311.247 404.532C313.88 404.727 316.452 404.083 318.683 402.67C320.915 401.256 322.595 399.206 323.544 396.742L329.26 381.89Z" fill="#54ADFF"/>
<path d="M306.34 350.647C308.643 352.125 311.452 352.471 314.248 351.621C316.909 350.811 319.252 348.997 320.845 346.512C322.437 344.027 323.106 341.14 322.731 338.384C322.336 335.489 320.85 333.082 318.548 331.608C313.921 328.639 307.415 330.494 304.045 335.745C301.366 339.93 301.475 345.022 303.969 348.42C304.606 349.287 305.399 350.044 306.34 350.647Z" fill="#54ADFF"/>
<path d="M324.661 357.865C328.458 363.036 336.34 363.724 342.231 359.398C348.124 355.071 349.828 347.344 346.032 342.173C342.235 337.003 334.353 336.317 328.46 340.644C322.569 344.97 320.865 352.695 324.661 357.865Z" fill="#54ADFF"/>
<path d="M333.93 375.988L333.93 375.988C334.25 376.978 334.72 377.882 335.313 378.69C338.082 382.461 343.525 384.12 348.773 382.425C351.794 381.45 354.322 379.512 355.892 376.968C357.535 374.305 357.945 371.306 357.045 368.522C356.146 365.738 354.058 363.546 351.168 362.348C348.407 361.203 345.223 361.111 342.202 362.087C335.83 364.146 332.119 370.382 333.93 375.988Z" fill="#54ADFF"/>
<path d="M349.676 394.82L349.677 394.818C349.692 389.318 344.635 384.823 338.4 384.799C332.166 384.778 327.077 389.234 327.055 394.731C327.047 396.735 327.714 398.607 328.867 400.178C330.876 402.914 334.364 404.736 338.331 404.753C344.564 404.773 349.654 400.317 349.676 394.82Z" fill="#54ADFF"/>
</g>
<defs>
<clipPath id="clip0_31154_5369">
<rect width="79.2039" height="79.2039" fill="white" transform="translate(103.387 338.132) rotate(-40.5446)"/>
</clipPath>
<clipPath id="clip1_31154_5369">
<rect width="29.6354" height="29.6354" fill="white" transform="translate(337.262 89.6719) rotate(7.07858)"/>
</clipPath>
<clipPath id="clip2_31154_5369">
<rect width="29.6354" height="29.6354" fill="white" transform="translate(17.5 143.651) rotate(-125.925)"/>
</clipPath>
<clipPath id="clip3_31154_5369">
<rect width="28.2604" height="28.2604" fill="white" transform="translate(17.7031 378.001) rotate(-125.925)"/>
</clipPath>
<clipPath id="clip4_31154_5369">
<rect width="28.2604" height="28.2604" fill="white" transform="translate(218.75 208.502) rotate(-65.0971)"/>
</clipPath>
<clipPath id="clip5_31154_5369">
<rect width="28.2604" height="28.2604" fill="white" transform="translate(65.6035 508.75) rotate(-65.0971)"/>
</clipPath>
<clipPath id="clip6_31154_5369">
<rect width="79.2039" height="79.2039" fill="white" transform="translate(294.084 519.958) rotate(127.692)"/>
</clipPath>
<clipPath id="clip7_31154_5369">
<rect width="79.2039" height="79.2039" fill="white" transform="translate(331.746 314.354) rotate(53.7104)"/>
</clipPath>
</defs>
</svg>
