<svg width="782" height="1193" viewBox="0 0 782 1193" fill="none" xmlns="http://www.w3.org/2000/svg">
<g opacity="0.12" clip-path="url(#clip0_31154_5320)">
<path d="M369.058 666.176C356.508 662.388 343.068 665.212 333.107 673.733C323.146 682.254 318.274 695.094 320.073 708.079L324.406 739.369C325.125 744.56 327.447 749.283 331.118 753.023C334.79 756.764 339.468 759.171 344.648 759.987C349.827 760.799 355.019 759.941 359.662 757.506C364.305 755.072 367.962 751.287 370.239 746.563L370.39 746.246C376.187 734.44 386.706 725.504 399.306 721.698C402.555 720.716 405.507 719.101 408.032 716.941C409.404 715.767 410.652 714.43 411.753 712.947C414.879 708.738 416.53 703.742 416.531 698.498C416.53 693.256 414.877 688.26 411.75 684.051C408.623 679.842 404.318 676.818 399.299 675.302L369.058 666.176Z" fill="#54ADFF"/>
<path d="M310.584 716.149C313.172 711.372 313.443 705.762 311.347 700.352C309.353 695.204 305.417 690.833 300.262 688.045C295.108 685.26 289.296 684.36 283.896 685.509C278.223 686.717 273.676 690.013 271.097 694.787C265.902 704.385 270.533 716.988 281.424 722.887C290.102 727.574 300.167 726.609 306.524 721.17C308.148 719.782 309.529 718.101 310.584 716.149Z" fill="#54ADFF"/>
<path d="M322.178 678.814C331.854 670.536 332.054 654.832 322.624 643.808C313.191 632.78 297.644 630.544 287.967 638.822C278.292 647.098 278.094 662.803 287.527 673.83C296.958 684.855 312.502 687.091 322.178 678.814Z" fill="#54ADFF"/>
<path d="M356.685 657.802L356.686 657.801C358.597 657.022 360.317 655.959 361.83 654.665C368.887 648.628 371.37 637.609 367.242 627.471C364.866 621.634 360.657 616.914 355.39 614.182C349.877 611.321 343.88 610.952 338.502 613.142C333.123 615.333 329.091 619.788 327.145 625.686C325.286 631.32 325.572 637.637 327.949 643.473C332.963 655.783 345.854 662.211 356.685 657.802Z" fill="#54ADFF"/>
<path d="M391.648 623.854L391.643 623.854C380.753 624.633 372.6 635.306 373.47 647.651C374.348 659.995 383.919 669.413 394.802 668.647C398.772 668.368 402.379 666.773 405.318 664.259C410.44 659.877 413.532 652.705 412.982 644.85C412.103 632.507 402.533 623.088 391.648 623.854Z" fill="#54ADFF"/>
</g>
<g opacity="0.12" clip-path="url(#clip1_31154_5320)">
<path d="M734.447 213.787C732.329 209.363 728.158 206.36 723.291 205.756C718.424 205.152 713.646 207.043 710.511 210.815L702.955 219.904C701.701 221.411 700.981 223.244 700.873 225.202C700.765 227.161 701.28 229.061 702.36 230.698C703.442 232.335 704.989 233.553 706.832 234.223C708.676 234.892 710.645 234.948 712.525 234.386L712.651 234.348C717.376 232.973 722.499 233.627 726.728 236.15C727.819 236.801 729.01 237.209 730.243 237.362C730.914 237.446 731.598 237.453 732.286 237.384C734.237 237.186 736.035 236.383 737.485 235.06C738.933 233.738 739.897 232.021 740.272 230.096C740.647 228.17 740.397 226.217 739.55 224.448L734.447 213.787Z" fill="#FFC107"/>
<path d="M705.887 210.228C707.86 209.739 709.479 208.399 710.446 206.455C711.366 204.606 711.582 202.415 711.052 200.287C710.522 198.161 709.305 196.327 707.626 195.124C705.862 193.861 703.804 193.435 701.834 193.926C697.871 194.911 695.555 199.369 696.671 203.867C697.564 207.448 700.369 209.986 703.476 210.372C704.269 210.471 705.082 210.429 705.887 210.228Z" fill="#FFC107"/>
<path d="M719.13 204.017C723.858 204.604 728.249 200.699 728.918 195.312C729.588 189.923 726.285 185.062 721.557 184.475C716.829 183.888 712.438 187.794 711.769 193.182C711.1 198.569 714.402 203.429 719.13 204.017Z" fill="#FFC107"/>
<path d="M733.641 208.256L733.642 208.256C734.339 208.588 735.067 208.795 735.806 208.887C739.254 209.315 742.926 207.223 744.687 203.525C745.702 201.396 745.945 199.042 745.372 196.898C744.772 194.652 743.362 192.902 741.4 191.967C739.438 191.033 737.19 191.042 735.069 191.992C733.042 192.899 731.369 194.571 730.355 196.7C728.217 201.19 729.691 206.374 733.641 208.256Z" fill="#FFC107"/>
<path d="M751.841 209.358L751.84 209.356C748.878 206.543 743.872 206.981 740.679 210.335C737.489 213.691 737.299 218.711 740.256 221.526C741.334 222.553 742.685 223.148 744.12 223.326C746.623 223.637 749.386 222.683 751.418 220.55C754.608 217.194 754.798 212.174 751.841 209.358Z" fill="#FFC107"/>
</g>
<g opacity="0.12" clip-path="url(#clip2_31154_5320)">
<path d="M66.6813 235.004C64.8904 239.57 65.5388 244.668 68.4165 248.64C71.2942 252.611 75.9361 254.815 80.833 254.536L92.6334 253.863C94.5911 253.751 96.4222 253.027 97.9277 251.771C99.4336 250.514 100.472 248.842 100.933 246.935C101.392 245.028 101.228 243.066 100.46 241.26C99.692 239.455 98.3905 237.977 96.6974 236.986L96.5836 236.92C92.3552 234.402 89.3396 230.21 88.3 225.396C88.0316 224.155 87.5181 223.005 86.7887 221.999C86.3921 221.451 85.931 220.946 85.4115 220.49C83.9358 219.198 82.1222 218.431 80.1665 218.273C78.2116 218.115 76.2985 218.581 74.6346 219.621C72.9706 220.66 71.7128 222.174 70.9963 224.001L66.6813 235.004Z" fill="#FFC107"/>
<path d="M83.5562 258.318C81.8526 257.209 79.7685 256.938 77.6877 257.557C75.7076 258.145 73.9589 259.482 72.7637 261.32C71.5699 263.159 71.059 265.299 71.3247 267.348C71.6042 269.5 72.6965 271.295 74.3993 272.401C77.8222 274.627 82.6624 273.28 85.1905 269.396C87.1999 266.301 87.1433 262.518 85.3065 259.983C84.8375 259.336 84.2524 258.77 83.5562 258.318Z" fill="#FFC107"/>
<path d="M69.9821 252.869C67.1866 249.011 61.3359 248.463 56.94 251.648C52.5431 254.834 51.2405 260.564 54.0361 264.423C56.8313 268.281 62.6825 268.828 67.0794 265.642C71.4752 262.457 72.7774 256.727 69.9821 252.869Z" fill="#FFC107"/>
<path d="M63.1857 239.366L63.1854 239.366C62.9524 238.63 62.6078 237.956 62.1709 237.353C60.1322 234.539 56.0974 233.281 52.1918 234.515C49.9435 235.225 48.0565 236.653 46.8788 238.535C45.6457 240.504 45.3272 242.73 45.9819 244.802C46.637 246.874 48.177 248.512 50.318 249.415C52.3633 250.278 54.7279 250.362 56.9757 249.651C61.7181 248.152 64.5038 243.538 63.1857 239.366Z" fill="#FFC107"/>
<path d="M51.5786 225.304L51.5783 225.306C51.5406 229.391 55.2758 232.753 59.906 232.801C64.5362 232.845 68.3371 229.559 68.3791 225.478C68.3949 223.989 67.9085 222.595 67.0595 221.423C65.5798 219.381 62.998 218.012 60.0521 217.98C55.4222 217.936 51.621 221.221 51.5786 225.304Z" fill="#FFC107"/>
</g>
<g opacity="0.12" clip-path="url(#clip3_31154_5320)">
<path d="M66.9785 702.519C65.2707 706.874 65.8891 711.735 68.6332 715.522C71.3774 719.31 75.804 721.412 80.4737 721.145L91.7265 720.503C93.5934 720.397 95.3396 719.707 96.7752 718.508C98.2112 717.31 99.2017 715.715 99.6409 713.897C100.078 712.078 99.9225 710.207 99.1901 708.486C98.4576 706.764 97.2166 705.355 95.602 704.41L95.4934 704.347C91.4613 701.946 88.5855 697.948 87.5942 693.357C87.3383 692.173 86.8486 691.077 86.153 690.117C85.7749 689.596 85.3352 689.113 84.8397 688.679C83.4325 687.447 81.7031 686.716 79.8381 686.565C77.9739 686.414 76.1496 686.859 74.5628 687.85C72.9761 688.841 71.7766 690.285 71.0934 692.027L66.9785 702.519Z" fill="#FFC107"/>
<path d="M83.0717 724.751C81.4472 723.693 79.4598 723.436 77.4756 724.026C75.5873 724.587 73.9197 725.861 72.78 727.614C71.6416 729.367 71.1544 731.408 71.4078 733.362C71.6743 735.414 72.7159 737.126 74.3397 738.181C77.6038 740.304 82.2194 739.019 84.6302 735.315C86.5464 732.364 86.4924 728.756 84.7409 726.339C84.2937 725.722 83.7356 725.182 83.0717 724.751Z" fill="#FFC107"/>
<path d="M70.1278 719.555C67.462 715.876 61.8828 715.354 57.6909 718.391C53.498 721.429 52.2558 726.894 54.9217 730.573C57.5872 734.252 63.1669 734.774 67.3598 731.736C71.5517 728.698 72.7934 723.234 70.1278 719.555Z" fill="#FFC107"/>
<path d="M63.645 706.679L63.6448 706.678C63.4225 705.976 63.094 705.334 62.6774 704.759C60.7332 702.076 56.8856 700.876 53.1612 702.053C51.0172 702.73 49.2177 704.091 48.0947 705.886C46.9188 707.764 46.6151 709.887 47.2395 711.862C47.8641 713.838 49.3327 715.4 51.3744 716.262C53.3248 717.085 55.5797 717.165 57.7232 716.487C62.2455 715.057 64.902 710.657 63.645 706.679Z" fill="#FFC107"/>
<path d="M52.5782 693.27L52.578 693.271C52.5421 697.167 56.1039 700.373 60.5193 700.418C64.9346 700.461 68.5592 697.328 68.5993 693.435C68.6143 692.015 68.1505 690.686 67.3409 689.569C65.9299 687.622 63.4678 686.316 60.6586 686.286C56.2436 686.244 52.6187 689.376 52.5782 693.27Z" fill="#FFC107"/>
</g>
<g opacity="0.12" clip-path="url(#clip4_31154_5320)">
<path d="M506.761 392.375C502.127 393.007 498.183 395.916 496.214 400.158C494.245 404.4 494.567 409.29 497.076 413.237L503.122 422.75C504.124 424.328 505.578 425.517 507.324 426.186C509.071 426.856 510.946 426.944 512.748 426.44C514.549 425.936 516.107 424.888 517.253 423.409C518.399 421.931 519.024 420.16 519.063 418.29L519.065 418.164C519.196 413.473 521.285 409.013 524.81 405.91C525.719 405.11 526.437 404.148 526.936 403.073C527.208 402.488 527.414 401.869 527.552 401.225C527.942 399.395 527.738 397.529 526.96 395.827C526.183 394.126 524.906 392.75 523.267 391.847C521.628 390.945 519.782 390.602 517.929 390.854L506.761 392.375Z" fill="#54ADFF"/>
<path d="M495.195 417.263C495.326 415.329 494.582 413.469 493.1 412.024C491.69 410.648 489.764 409.813 487.678 409.673C485.592 409.533 483.573 410.103 481.99 411.276C480.328 412.509 479.341 414.253 479.212 416.185C478.949 420.07 482.321 423.474 486.73 423.774C490.241 424.008 493.365 422.203 494.622 419.495C494.943 418.804 495.142 418.053 495.195 417.263Z" fill="#54ADFF"/>
<path d="M493.421 403.428C495.335 399.307 493.071 394.181 488.376 392.001C483.68 389.821 478.303 391.4 476.389 395.521C474.476 399.642 476.741 404.768 481.437 406.948C486.132 409.128 491.508 407.549 493.421 403.428Z" fill="#54ADFF"/>
<path d="M501.505 391.492L501.505 391.492C502.01 390.956 502.411 390.356 502.71 389.712C504.105 386.706 503.277 382.762 500.434 380.083C498.798 378.541 496.732 377.634 494.618 377.528C492.404 377.417 490.403 378.186 488.983 379.694C487.562 381.203 486.913 383.247 487.156 385.449C487.388 387.553 488.418 389.561 490.055 391.102C493.507 394.354 498.644 394.529 501.505 391.492Z" fill="#54ADFF"/>
<path d="M507.819 375.292L507.818 375.292C504.399 377.16 503.336 381.833 505.448 385.71C507.563 389.586 512.066 391.224 515.484 389.361C516.731 388.682 517.665 387.63 518.246 386.378C519.259 384.197 519.199 381.411 517.856 378.943C515.741 375.067 511.239 373.429 507.819 375.292Z" fill="#54ADFF"/>
</g>
<g opacity="0.12" clip-path="url(#clip5_31154_5320)">
<path d="M202.761 988.375C198.127 989.007 194.183 991.916 192.214 996.158C190.245 1000.4 190.567 1005.29 193.076 1009.24L199.122 1018.75C200.124 1020.33 201.578 1021.52 203.324 1022.19C205.071 1022.86 206.946 1022.94 208.748 1022.44C210.549 1021.94 212.107 1020.89 213.253 1019.41C214.399 1017.93 215.024 1016.16 215.063 1014.29L215.065 1014.16C215.196 1009.47 217.285 1005.01 220.81 1001.91C221.719 1001.11 222.437 1000.15 222.936 999.073C223.208 998.488 223.414 997.869 223.552 997.225C223.942 995.395 223.738 993.529 222.96 991.827C222.183 990.126 220.906 988.75 219.267 987.847C217.628 986.945 215.782 986.602 213.929 986.854L202.761 988.375Z" fill="#54ADFF"/>
<path d="M191.195 1013.26C191.326 1011.33 190.582 1009.47 189.1 1008.02C187.69 1006.65 185.764 1005.81 183.678 1005.67C181.592 1005.53 179.573 1006.1 177.99 1007.28C176.328 1008.51 175.341 1010.25 175.212 1012.18C174.949 1016.07 178.321 1019.47 182.73 1019.77C186.241 1020.01 189.365 1018.2 190.622 1015.49C190.943 1014.8 191.142 1014.05 191.195 1013.26Z" fill="#54ADFF"/>
<path d="M189.421 999.428C191.335 995.307 189.071 990.181 184.376 988.001C179.68 985.821 174.303 987.4 172.389 991.521C170.476 995.642 172.741 1000.77 177.437 1002.95C182.132 1005.13 187.508 1003.55 189.421 999.428Z" fill="#54ADFF"/>
<path d="M197.505 987.492L197.505 987.492C198.01 986.956 198.411 986.356 198.71 985.712C200.105 982.706 199.277 978.762 196.434 976.083C194.798 974.541 192.732 973.634 190.618 973.528C188.404 973.417 186.403 974.186 184.983 975.694C183.562 977.203 182.913 979.247 183.156 981.449C183.388 983.553 184.418 985.561 186.055 987.102C189.507 990.354 194.644 990.529 197.505 987.492Z" fill="#54ADFF"/>
<path d="M203.819 971.292L203.818 971.292C200.399 973.16 199.336 977.833 201.448 981.71C203.563 985.586 208.066 987.224 211.484 985.361C212.731 984.682 213.665 983.63 214.246 982.378C215.259 980.197 215.199 977.411 213.856 974.943C211.741 971.067 207.239 969.429 203.819 971.292Z" fill="#54ADFF"/>
</g>
<g opacity="0.12" clip-path="url(#clip6_31154_5320)">
<path d="M483.321 1064.38C496.38 1065.53 508.961 1060.02 516.976 1049.65C524.991 1039.28 527.143 1025.71 522.734 1013.37L512.113 983.618C510.352 978.682 507.116 974.533 502.759 971.62C498.401 968.706 493.331 967.303 488.094 967.56C482.858 967.821 477.95 969.719 473.9 973.049C469.851 976.379 467.042 980.831 465.777 985.919L465.693 986.261C462.425 999.001 453.948 1009.89 442.389 1016.19C439.408 1017.81 436.848 1019.99 434.817 1022.62C433.712 1024.05 432.763 1025.62 431.987 1027.29C429.786 1032.05 429.187 1037.28 430.256 1042.41C431.325 1047.54 433.962 1052.1 437.882 1055.58C441.801 1059.06 446.632 1061.15 451.854 1061.61L483.321 1064.38Z" fill="#FFC107"/>
<path d="M530.377 1003.53C528.818 1008.74 529.696 1014.28 532.851 1019.15C535.852 1023.79 540.597 1027.26 546.212 1028.94C551.825 1030.62 557.699 1030.31 562.752 1028.09C568.059 1025.75 571.839 1021.6 573.39 1016.4C576.519 1005.94 569.416 994.546 557.551 990.992C548.1 988.173 538.443 991.169 533.328 997.79C532.022 999.48 531.012 1001.41 530.377 1003.53Z" fill="#FFC107"/>
<path d="M526.64 1042.45C518.855 1052.52 521.86 1067.94 533.34 1076.81C544.824 1085.68 560.5 1084.7 568.286 1074.63C576.071 1064.55 573.062 1049.13 561.579 1040.26C550.099 1031.39 534.426 1032.37 526.64 1042.45Z" fill="#FFC107"/>
<path d="M497.14 1070.05L497.139 1070.05C495.427 1071.21 493.96 1072.6 492.743 1074.17C487.065 1081.52 486.88 1092.82 492.988 1101.9C496.504 1107.13 501.587 1110.89 507.3 1112.49C513.281 1114.17 519.227 1113.31 524.046 1110.07C528.865 1106.83 531.905 1101.64 532.607 1095.47C533.279 1089.58 531.711 1083.45 528.193 1078.22C520.775 1067.19 506.845 1063.53 497.14 1070.05Z" fill="#FFC107"/>
<path d="M469.834 1110.42L469.839 1110.41C480.342 1107.43 486.147 1095.32 482.778 1083.41C479.402 1071.51 468.113 1064.24 457.614 1067.21C453.785 1068.29 450.578 1070.59 448.214 1073.65C444.093 1078.98 442.528 1086.63 444.667 1094.21C448.045 1106.11 459.333 1113.38 469.834 1110.42Z" fill="#FFC107"/>
</g>
<g opacity="0.12" clip-path="url(#clip7_31154_5320)">
<path d="M683.361 758.062C688.069 745.827 686.25 732.214 678.491 721.649C670.733 711.083 658.29 705.272 645.207 706.102L613.682 708.102C608.451 708.433 603.57 710.399 599.568 713.782C595.565 717.167 592.817 721.653 591.619 726.758C590.425 731.862 590.895 737.103 592.979 741.915C595.062 746.726 598.565 750.654 603.107 753.274L603.412 753.449C614.756 760.105 622.886 771.259 625.747 784.106C626.485 787.42 627.877 790.483 629.843 793.161C630.912 794.617 632.153 795.96 633.55 797.169C637.515 800.598 642.375 802.616 647.605 803.005C652.832 803.393 657.937 802.115 662.366 799.309C666.796 796.503 670.131 792.434 672.015 787.542L683.361 758.062Z" fill="#54ADFF"/>
<path d="M637.863 696.042C642.435 698.976 648.009 699.663 653.56 697.975C658.842 696.368 663.493 692.767 666.656 687.833C669.815 682.9 671.144 677.171 670.399 671.7C669.616 665.953 666.666 661.174 662.096 658.248C652.911 652.356 639.998 656.038 633.307 666.462C627.99 674.768 628.205 684.877 633.157 691.621C634.421 693.343 635.995 694.845 637.863 696.042Z" fill="#54ADFF"/>
<path d="M674.235 710.372C681.772 720.636 697.418 722 709.112 713.414C720.808 704.825 724.192 689.487 716.655 679.223C709.119 668.96 693.473 667.597 681.776 676.186C670.082 684.773 666.699 700.108 674.235 710.372Z" fill="#54ADFF"/>
<path d="M692.63 746.344L692.631 746.345C693.266 748.309 694.199 750.104 695.376 751.708C700.873 759.193 711.677 762.487 722.094 759.123C728.091 757.187 733.11 753.339 736.225 748.29C739.487 743.004 740.301 737.051 738.516 731.525C736.73 725.999 732.586 721.647 726.849 719.269C721.368 716.997 715.047 716.813 709.052 718.751C696.403 722.838 689.036 735.216 692.63 746.344Z" fill="#54ADFF"/>
<path d="M723.889 783.727L723.89 783.722C723.921 772.805 713.882 763.883 701.506 763.834C689.131 763.794 679.029 772.639 678.986 783.549C678.969 787.529 680.293 791.245 682.582 794.362C686.571 799.795 693.494 803.411 701.368 803.445C713.742 803.484 723.845 794.64 723.889 783.727Z" fill="#54ADFF"/>
</g>
<defs>
<clipPath id="clip0_31154_5320">
<rect width="157.222" height="157.222" fill="white" transform="translate(235 671.2) rotate(-40.5446)"/>
</clipPath>
<clipPath id="clip1_31154_5320">
<rect width="58.827" height="58.827" fill="white" transform="translate(699.25 178) rotate(7.07858)"/>
</clipPath>
<clipPath id="clip2_31154_5320">
<rect width="58.827" height="58.827" fill="white" transform="translate(64.5156 285.152) rotate(-125.925)"/>
</clipPath>
<clipPath id="clip3_31154_5320">
<rect width="56.0976" height="56.0976" fill="white" transform="translate(64.9141 750.341) rotate(-125.925)"/>
</clipPath>
<clipPath id="clip4_31154_5320">
<rect width="56.0976" height="56.0976" fill="white" transform="translate(464 413.882) rotate(-65.0971)"/>
</clipPath>
<clipPath id="clip5_31154_5320">
<rect width="56.0976" height="56.0976" fill="white" transform="translate(160 1009.88) rotate(-65.0971)"/>
</clipPath>
<clipPath id="clip6_31154_5320">
<rect width="157.222" height="157.222" fill="white" transform="translate(613.539 1032.13) rotate(127.692)"/>
</clipPath>
<clipPath id="clip7_31154_5320">
<rect width="157.222" height="157.222" fill="white" transform="translate(688.297 624) rotate(53.7104)"/>
</clipPath>
</defs>
</svg>
